<svg width="50" height="51" viewBox="0 0 50 51" fill="none" xmlns="http://www.w3.org/2000/svg">
<rect y="0.5" width="50" height="50" rx="25" fill="#00BAC7"/>
<g filter="url(#filter0_d_1_108)">
<mask id="path-2-outside-1_1_108" maskUnits="userSpaceOnUse" x="14" y="17.5" width="22" height="17" fill="black">
<rect fill="white" x="14" y="17.5" width="22" height="17"/>
<path d="M24.918 28.994L29.076 18.5H34.332V19.22C33.936 19.22 33.612 19.262 33.36 19.346C33.12 19.418 32.934 19.556 32.802 19.76C32.67 19.964 32.58 20.246 32.532 20.606C32.496 20.954 32.478 21.398 32.478 21.938V28.922C32.478 29.522 32.502 29.996 32.55 30.344C32.598 30.692 32.694 30.962 32.838 31.154C32.982 31.346 33.186 31.472 33.45 31.532C33.726 31.592 34.086 31.628 34.53 31.64V32.36H27.762V31.64C28.206 31.628 28.56 31.592 28.824 31.532C29.1 31.46 29.31 31.334 29.454 31.154C29.61 30.974 29.712 30.722 29.76 30.398C29.808 30.062 29.832 29.612 29.832 29.048V20.624H29.742L24.9 32.54H23.568L18.564 20.624H18.492V28.922C18.492 29.522 18.516 29.996 18.564 30.344C18.612 30.692 18.708 30.962 18.852 31.154C18.996 31.346 19.2 31.472 19.464 31.532C19.74 31.592 20.1 31.628 20.544 31.64V32.36H15V31.64C15.444 31.628 15.804 31.592 16.08 31.532C16.356 31.46 16.566 31.334 16.71 31.154C16.866 30.974 16.968 30.722 17.016 30.398C17.064 30.062 17.088 29.612 17.088 29.048V21.812C17.088 21.308 17.064 20.888 17.016 20.552C16.968 20.216 16.878 19.952 16.746 19.76C16.614 19.556 16.422 19.418 16.17 19.346C15.93 19.262 15.606 19.22 15.198 19.22V18.5H20.652L24.846 28.994H24.918Z"/>
</mask>
<path d="M24.918 28.994L29.076 18.5H34.332V19.22C33.936 19.22 33.612 19.262 33.36 19.346C33.12 19.418 32.934 19.556 32.802 19.76C32.67 19.964 32.58 20.246 32.532 20.606C32.496 20.954 32.478 21.398 32.478 21.938V28.922C32.478 29.522 32.502 29.996 32.55 30.344C32.598 30.692 32.694 30.962 32.838 31.154C32.982 31.346 33.186 31.472 33.45 31.532C33.726 31.592 34.086 31.628 34.53 31.64V32.36H27.762V31.64C28.206 31.628 28.56 31.592 28.824 31.532C29.1 31.46 29.31 31.334 29.454 31.154C29.61 30.974 29.712 30.722 29.76 30.398C29.808 30.062 29.832 29.612 29.832 29.048V20.624H29.742L24.9 32.54H23.568L18.564 20.624H18.492V28.922C18.492 29.522 18.516 29.996 18.564 30.344C18.612 30.692 18.708 30.962 18.852 31.154C18.996 31.346 19.2 31.472 19.464 31.532C19.74 31.592 20.1 31.628 20.544 31.64V32.36H15V31.64C15.444 31.628 15.804 31.592 16.08 31.532C16.356 31.46 16.566 31.334 16.71 31.154C16.866 30.974 16.968 30.722 17.016 30.398C17.064 30.062 17.088 29.612 17.088 29.048V21.812C17.088 21.308 17.064 20.888 17.016 20.552C16.968 20.216 16.878 19.952 16.746 19.76C16.614 19.556 16.422 19.418 16.17 19.346C15.93 19.262 15.606 19.22 15.198 19.22V18.5H20.652L24.846 28.994H24.918Z" fill="white"/>
<path d="M24.918 28.994V29.994H25.5974L25.8477 29.3624L24.918 28.994ZM29.076 18.5V17.5H28.3966L28.1463 18.1316L29.076 18.5ZM34.332 18.5H35.332V17.5H34.332V18.5ZM34.332 19.22V20.22H35.332V19.22H34.332ZM33.36 19.346L33.6474 20.3038L33.6619 20.2995L33.6762 20.2947L33.36 19.346ZM32.802 19.76L31.9624 19.2167L31.9624 19.2167L32.802 19.76ZM32.532 20.606L31.5408 20.4738L31.5388 20.4884L31.5373 20.5031L32.532 20.606ZM32.55 30.344L31.5594 30.4806L31.5594 30.4806L32.55 30.344ZM32.838 31.154L32.038 31.754L32.038 31.754L32.838 31.154ZM33.45 31.532L33.2284 32.5072L33.2376 32.5092L33.45 31.532ZM34.53 31.64H35.53V30.6667L34.557 30.6404L34.53 31.64ZM34.53 32.36V33.36H35.53V32.36H34.53ZM27.762 32.36H26.762V33.36H27.762V32.36ZM27.762 31.64L27.735 30.6404L26.762 30.6667V31.64H27.762ZM28.824 31.532L29.0456 32.5071L29.0611 32.5036L29.0764 32.4996L28.824 31.532ZM29.454 31.154L28.6983 30.4991L28.6854 30.5139L28.6731 30.5293L29.454 31.154ZM29.76 30.398L30.7492 30.5446L30.7499 30.5394L29.76 30.398ZM29.832 20.624H30.832V19.624H29.832V20.624ZM29.742 20.624V19.624H29.0689L28.8156 20.2475L29.742 20.624ZM24.9 32.54V33.54H25.5731L25.8264 32.9165L24.9 32.54ZM23.568 32.54L22.646 32.9272L22.9033 33.54H23.568V32.54ZM18.564 20.624L19.486 20.2368L19.2287 19.624H18.564V20.624ZM18.492 20.624V19.624H17.492V20.624H18.492ZM18.564 30.344L19.5546 30.2074L19.5546 30.2074L18.564 30.344ZM18.852 31.154L19.652 30.554L19.652 30.554L18.852 31.154ZM19.464 31.532L19.2424 32.5072L19.2516 32.5092L19.464 31.532ZM20.544 31.64H21.544V30.6667L20.571 30.6404L20.544 31.64ZM20.544 32.36V33.36H21.544V32.36H20.544ZM15 32.36H14V33.36H15V32.36ZM15 31.64L14.973 30.6404L14 30.6667V31.64H15ZM16.08 31.532L16.2924 32.5092L16.3125 32.5048L16.3324 32.4996L16.08 31.532ZM16.71 31.154L15.9543 30.4991L15.9414 30.5139L15.9291 30.5293L16.71 31.154ZM17.016 30.398L18.0052 30.5446L18.0059 30.5394L17.016 30.398ZM17.016 20.552L16.0261 20.6934L16.0261 20.6934L17.016 20.552ZM16.746 19.76L15.9064 20.3033L15.914 20.315L15.922 20.3265L16.746 19.76ZM16.17 19.346L15.8397 20.2899L15.8672 20.2995L15.8953 20.3075L16.17 19.346ZM15.198 19.22H14.198V20.22H15.198V19.22ZM15.198 18.5V17.5H14.198V18.5H15.198ZM20.652 18.5L21.5806 18.1289L21.3292 17.5H20.652V18.5ZM24.846 28.994L23.9174 29.3651L24.1688 29.994H24.846V28.994ZM25.8477 29.3624L30.0057 18.8684L28.1463 18.1316L23.9883 28.6256L25.8477 29.3624ZM29.076 19.5H34.332V17.5H29.076V19.5ZM33.332 18.5V19.22H35.332V18.5H33.332ZM34.332 18.22C33.8759 18.22 33.4347 18.267 33.0438 18.3973L33.6762 20.2947C33.7893 20.257 33.9961 20.22 34.332 20.22V18.22ZM33.0727 18.3882C32.6129 18.5261 32.2278 18.8067 31.9624 19.2167L33.6416 20.3033C33.6442 20.2992 33.645 20.2987 33.6435 20.3003C33.6419 20.302 33.6394 20.3043 33.6363 20.3066C33.6333 20.3088 33.6316 20.3096 33.6323 20.3093C33.6331 20.3089 33.6376 20.3067 33.6474 20.3038L33.0727 18.3882ZM31.9624 19.2167C31.7204 19.5909 31.5995 20.0335 31.5408 20.4738L33.5232 20.7382C33.5605 20.4585 33.6196 20.3371 33.6416 20.3033L31.9624 19.2167ZM31.5373 20.5031C31.4964 20.8984 31.478 21.3799 31.478 21.938H33.478C33.478 21.4161 33.4956 21.0096 33.5267 20.7089L31.5373 20.5031ZM31.478 21.938V28.922H33.478V21.938H31.478ZM31.478 28.922C31.478 29.5406 31.5023 30.0667 31.5594 30.4806L33.5406 30.2074C33.5017 29.9253 33.478 29.5034 33.478 28.922H31.478ZM31.5594 30.4806C31.6206 30.9242 31.7558 31.3777 32.038 31.754L33.638 30.554C33.6323 30.5463 33.5754 30.4598 33.5406 30.2074L31.5594 30.4806ZM32.038 31.754C32.3425 32.16 32.7647 32.4018 33.2284 32.5071L33.6716 30.5569C33.6334 30.5482 33.6215 30.5398 33.6245 30.5417C33.6257 30.5424 33.6285 30.5443 33.6318 30.5474C33.6352 30.5505 33.6373 30.553 33.638 30.554L32.038 31.754ZM33.2376 32.5092C33.5988 32.5877 34.0277 32.6268 34.503 32.6396L34.557 30.6404C34.1443 30.6292 33.8532 30.5963 33.6624 30.5548L33.2376 32.5092ZM33.53 31.64V32.36H35.53V31.64H33.53ZM34.53 31.36H27.762V33.36H34.53V31.36ZM28.762 32.36V31.64H26.762V32.36H28.762ZM27.789 32.6396C28.2626 32.6268 28.6903 32.5879 29.0456 32.5071L28.6024 30.5569C28.4297 30.5961 28.1494 30.6292 27.735 30.6404L27.789 32.6396ZM29.0764 32.4996C29.5105 32.3864 29.927 32.1635 30.2349 31.7787L28.6731 30.5293C28.6799 30.5208 28.6835 30.5203 28.674 30.526C28.6628 30.5327 28.6322 30.5486 28.5716 30.5644L29.0764 32.4996ZM30.2097 31.8089C30.5288 31.4407 30.6834 30.9886 30.7492 30.5445L28.7708 30.2515C28.7406 30.4554 28.6912 30.5073 28.6983 30.4991L30.2097 31.8089ZM30.7499 30.5394C30.8076 30.1361 30.832 29.6328 30.832 29.048H28.832C28.832 29.5912 28.8084 29.9879 28.7701 30.2566L30.7499 30.5394ZM30.832 29.048V20.624H28.832V29.048H30.832ZM29.832 19.624H29.742V21.624H29.832V19.624ZM28.8156 20.2475L23.9736 32.1635L25.8264 32.9165L30.6684 21.0005L28.8156 20.2475ZM24.9 31.54H23.568V33.54H24.9V31.54ZM24.49 32.1528L19.486 20.2368L17.642 21.0112L22.646 32.9272L24.49 32.1528ZM18.564 19.624H18.492V21.624H18.564V19.624ZM17.492 20.624V28.922H19.492V20.624H17.492ZM17.492 28.922C17.492 29.5406 17.5163 30.0667 17.5734 30.4806L19.5546 30.2074C19.5157 29.9253 19.492 29.5034 19.492 28.922H17.492ZM17.5734 30.4806C17.6346 30.9242 17.7697 31.3777 18.052 31.754L19.652 30.554C19.6463 30.5463 19.5894 30.4599 19.5546 30.2074L17.5734 30.4806ZM18.052 31.754C18.3565 32.16 18.7787 32.4018 19.2424 32.5071L19.6856 30.5569C19.6474 30.5482 19.6355 30.5398 19.6385 30.5417C19.6397 30.5424 19.6425 30.5443 19.6458 30.5474C19.6492 30.5505 19.6513 30.553 19.652 30.554L18.052 31.754ZM19.2516 32.5092C19.6128 32.5877 20.0417 32.6268 20.517 32.6396L20.571 30.6404C20.1583 30.6292 19.8672 30.5963 19.6764 30.5548L19.2516 32.5092ZM19.544 31.64V32.36H21.544V31.64H19.544ZM20.544 31.36H15V33.36H20.544V31.36ZM16 32.36V31.64H14V32.36H16ZM15.027 32.6396C15.5023 32.6268 15.9312 32.5877 16.2924 32.5092L15.8676 30.5548C15.6768 30.5963 15.3857 30.6292 14.973 30.6404L15.027 32.6396ZM16.3324 32.4996C16.7665 32.3864 17.183 32.1635 17.4909 31.7787L15.9291 30.5293C15.9359 30.5208 15.9395 30.5203 15.93 30.526C15.9188 30.5327 15.8882 30.5486 15.8276 30.5644L16.3324 32.4996ZM17.4657 31.8089C17.7848 31.4407 17.9394 30.9886 18.0052 30.5445L16.0268 30.2515C15.9966 30.4554 15.9472 30.5073 15.9543 30.4991L17.4657 31.8089ZM18.0059 30.5394C18.0636 30.1361 18.088 29.6328 18.088 29.048H16.088C16.088 29.5912 16.0644 29.9879 16.0261 30.2566L18.0059 30.5394ZM18.088 29.048V21.812H16.088V29.048H18.088ZM18.088 21.812C18.088 21.281 18.063 20.81 18.0059 20.4106L16.0261 20.6934C16.065 20.966 16.088 21.335 16.088 21.812H18.088ZM18.0059 20.4106C17.9454 19.9865 17.82 19.557 17.57 19.1935L15.922 20.3265C15.936 20.347 15.9906 20.4455 16.0261 20.6934L18.0059 20.4106ZM17.5856 19.2167C17.3113 18.7929 16.9096 18.5173 16.4447 18.3845L15.8953 20.3075C15.9093 20.3115 15.9171 20.3149 15.9202 20.3164C15.9231 20.3177 15.9224 20.3177 15.9194 20.3155C15.9163 20.3133 15.9129 20.3104 15.9098 20.3071C15.9068 20.3039 15.9057 20.3022 15.9064 20.3033L17.5856 19.2167ZM16.5003 18.4021C16.1097 18.2654 15.659 18.22 15.198 18.22V20.22C15.553 20.22 15.7503 20.2586 15.8397 20.2899L16.5003 18.4021ZM16.198 19.22V18.5H14.198V19.22H16.198ZM15.198 19.5H20.652V17.5H15.198V19.5ZM19.7234 18.8711L23.9174 29.3651L25.7746 28.6229L21.5806 18.1289L19.7234 18.8711ZM24.846 29.994H24.918V27.994H24.846V29.994Z" fill="black" mask="url(#path-2-outside-1_1_108)"/>
</g>
<defs>
<filter id="filter0_d_1_108" x="10" y="17.5" width="29.53" height="24.04" filterUnits="userSpaceOnUse" color-interpolation-filters="sRGB">
<feFlood flood-opacity="0" result="BackgroundImageFix"/>
<feColorMatrix in="SourceAlpha" type="matrix" values="0 0 0 0 0 0 0 0 0 0 0 0 0 0 0 0 0 0 127 0" result="hardAlpha"/>
<feOffset dy="4"/>
<feGaussianBlur stdDeviation="2"/>
<feComposite in2="hardAlpha" operator="out"/>
<feColorMatrix type="matrix" values="0 0 0 0 0 0 0 0 0 0 0 0 0 0 0 0 0 0 0.25 0"/>
<feBlend mode="normal" in2="BackgroundImageFix" result="effect1_dropShadow_1_108"/>
<feBlend mode="normal" in="SourceGraphic" in2="effect1_dropShadow_1_108" result="shape"/>
</filter>
</defs>
</svg>
